# xmcd
#
# Track frame offsets:
#	150
#	15445
#	28675
#	38190
#	49267
#	65942
#	76635
#	88612
#	104912
#	118087
#	130355
#	141265
#	155485
#	172477
#	204470
#	215732
#	225672
#	238670
#	258890
#	270685
#	285487
#	301090
#	312167
#	324010
#	336302
#
# Disc length: 4729 seconds
#
# Revision: 0
# Processed by: cddbd v1.4PL0 Copyright (c) Steve Scherf et al.
# Submitted via: audiograbber 1.82.02
#
DISCID=70127719
DTITLE=Various Artist - The Blues Collection Vol. 2
DYEAR=1900
DGENRE=Blues
TTITLE0=Charlie Parker - Cool Blues
TTITLE1=Benny Goodman - Basin Street Blues
TTITLE2=Louis Armstrong - Royal Garden Blues
TTITLE3=Ray Charles - Sentimental Blues
TTITLE4=Nat King Cole - Old Piano Plays The Blues
TTITLE5=John Lee Hooker - Want Ad Blues
TTITLE6=Lightnin' Hopkins - Lonesome Dog Blues
TTITLE7=Duke Ellington - East St. Louis Blues
TTITLE8=Lionel Hampton - I Can't Get Started
TTITLE9=King Cole Trio - Early Morning Blues
TTITLE10=Big Joe Williams - Sinking Blues
TTITLE11=Cow Cow Davenport - Cow Cow Blues
TTITLE12=Ika and Tina Turner - I Smell Trouble
TTITLE13=Mike Bloomfield - Between A Hard Place And The Ground
TTITLE14=Eric Clapton - Snake Drive
TTITLE15=John Lee Hooker - Dusty Road
TTITLE16=Jimmy Reed - Shame Shame Shame
TTITLE17=Paul Whiteman and His Orchestra - Washboard Blues
TTITLE18=Sidney Bechet - Limehouse Blues
TTITLE19=Woody Herman - Blues In The Night
TTITLE20=Big Joe Turner - When The Sun Goes Down
TTITLE21=Fats Domino - Blue Monday
TTITLE22=Bie Joe Williams - Sloppy Drunk Blues
TTITLE23=Elmore James - Pickin' The Blues
TTITLE24=Mike Bloomfield - Don't Lie To Me
EXTD=
EXTT0=
EXTT1=
EXTT2=
EXTT3=
EXTT4=
EXTT5=
EXTT6=
EXTT7=
EXTT8=
EXTT9=
EXTT10=
EXTT11=
EXTT12=
EXTT13=
EXTT14=
EXTT15=
EXTT16=
EXTT17=
EXTT18=
EXTT19=
EXTT20=
EXTT21=
EXTT22=
EXTT23=
EXTT24=
PLAYORDER=
